<svg id="vector" viewBox="0 0 74 74" xmlns="http://www.w3.org/2000/svg">
    <path d="M 0 0 L 74.954 0 L 74.954 74.954 L 0 74.954 Z" fill="#ce422b" id="path" />
    <path d="M 18.75 18.75 L 56.204 18.75 L 56.204 56.204 L 18.75 56.204 Z" fill="#f6eae0"
        id="path_1" />
    <path
        d="M 46.788 4.784 L 28.137 4.784 C 24.038 4.784 20.011 5.863 16.461 7.912 C 12.911 9.961 9.963 12.91 7.913 16.459 C 5.864 20.009 4.784 24.036 4.784 28.135 L 4.784 46.788 C 4.784 50.887 5.864 54.914 7.913 58.464 C 9.963 62.013 12.911 64.962 16.461 67.011 C 20.011 69.06 24.038 70.139 28.137 70.139 L 46.788 70.139 C 50.887 70.139 54.914 69.06 58.464 67.011 C 62.014 64.962 64.962 62.013 67.012 58.464 C 69.061 54.914 70.141 50.887 70.141 46.788 L 70.141 28.135 C 70.141 24.036 69.061 20.009 67.012 16.459 C 64.962 12.91 62.014 9.961 58.464 7.912 C 54.914 5.863 50.887 4.784 46.788 4.784 Z M 51.842 52.384 L 43.978 52.384 L 43.978 47.099 L 37.463 40.584 L 30.946 47.099 L 30.946 52.382 L 23.082 52.382 L 23.082 44.516 L 29.336 44.516 L 35.98 37.874 L 35.98 32.313 C 34.838 31.959 33.859 31.206 33.224 30.193 C 32.589 29.18 32.338 27.971 32.517 26.789 C 32.696 25.606 33.294 24.526 34.2 23.746 C 35.107 22.966 36.264 22.537 37.461 22.537 C 38.657 22.537 39.814 22.966 40.721 23.746 C 41.627 24.526 42.225 25.606 42.404 26.789 C 42.583 27.971 42.332 29.18 41.697 30.193 C 41.062 31.206 40.083 31.959 38.941 32.313 L 38.941 37.874 L 45.583 44.516 L 51.841 44.516 Z"
        fill="#ce422b" id="path_2" />
</svg>
