<svg fill="black" height="24" viewBox="0 0 74 74" width="24" xmlns="http://www.w3.org/2000/svg">
    <path
        d="M46.788,4.784H28.137C24.038,4.784 20.011,5.863 16.461,7.912C12.911,9.961 9.963,12.91 7.913,16.459C5.864,20.009 4.784,24.036 4.784,28.135V46.788C4.784,50.887 5.864,54.914 7.913,58.464C9.963,62.013 12.911,64.962 16.461,67.011C20.011,69.06 24.038,70.139 28.137,70.139H46.788C50.887,70.139 54.914,69.06 58.464,67.011C62.014,64.962 64.962,62.013 67.012,58.464C69.061,54.914 70.141,50.887 70.141,46.788V28.135C70.141,24.036 69.061,20.009 67.012,16.459C64.962,12.91 62.014,9.961 58.464,7.912C54.914,5.863 50.887,4.784 46.788,4.784ZM51.842,52.384H43.978V47.099L37.463,40.584L30.946,47.099V52.382H23.082V44.516H29.336L35.98,37.874V32.313C34.838,31.959 33.859,31.206 33.224,30.193C32.589,29.18 32.338,27.971 32.517,26.789C32.696,25.606 33.294,24.526 34.2,23.746C35.107,22.966 36.264,22.537 37.461,22.537C38.657,22.537 39.814,22.966 40.721,23.746C41.627,24.526 42.225,25.606 42.404,26.789C42.583,27.971 42.332,29.18 41.697,30.193C41.062,31.206 40.083,31.959 38.941,32.313V37.874L45.583,44.516H51.841V52.384Z" />
</svg>
