<svg fill="none" height="91" viewBox="0 0 297 91" width="297" xmlns="http://www.w3.org/2000/svg">
    <g filter="url(#filter0_dd_1_7)">
        <path
            d="M4.4725 72V41.088H20.5525C23.0805 41.088 25.1445 41.552 26.7445 42.48C28.3765 43.408 29.5925 44.704 30.3925 46.368C31.1925 48 31.5925 49.904 31.5925 52.08C31.5925 54.16 31.0645 56 30.0085 57.6C28.9845 59.168 27.6085 60.368 25.8805 61.2C26.2325 61.488 26.5365 61.84 26.7925 62.256C27.0485 62.64 27.3365 63.184 27.6565 63.888L31.2085 72H21.8005L18.5365 64.56C18.2805 63.984 17.9605 63.584 17.5765 63.36C17.2245 63.104 16.7125 62.976 16.0405 62.976H13.4965V72H4.4725ZM13.4965 56.064H18.2485C19.5605 56.064 20.5685 55.728 21.2725 55.056C22.0085 54.352 22.3765 53.36 22.3765 52.08C22.3765 49.36 21.0965 48 18.5365 48H13.4965V56.064ZM43.1973 72.48C40.5413 72.48 38.4613 71.728 36.9573 70.224C35.4533 68.72 34.7013 66.512 34.7013 63.6V49.248H43.7253V62.88C43.7253 64.864 44.7333 65.856 46.7493 65.856C47.4853 65.856 48.2053 65.696 48.9093 65.376C49.6133 65.056 50.1733 64.656 50.5893 64.176V49.248H59.6133V72H51.1653L50.9253 70.272C50.0293 70.912 48.9253 71.44 47.6133 71.856C46.3333 72.272 44.8613 72.48 43.1973 72.48ZM72.79 72.48C70.838 72.48 68.998 72.336 67.27 72.048C65.574 71.792 64.23 71.456 63.238 71.04V64.56C64.358 65.072 65.686 65.472 67.222 65.76C68.79 66.048 70.118 66.192 71.206 66.192C72.358 66.192 73.222 66.16 73.798 66.096C74.406 66.032 74.71 65.76 74.71 65.28C74.71 64.736 74.182 64.32 73.126 64.032C72.07 63.744 70.742 63.328 69.142 62.784C67.062 62.048 65.51 61.184 64.486 60.192C63.462 59.2 62.95 57.76 62.95 55.872C62.95 53.6 63.846 51.856 65.638 50.64C67.43 49.392 70.246 48.768 74.086 48.768C75.558 48.768 77.078 48.88 78.646 49.104C80.214 49.328 81.446 49.584 82.342 49.872V56.208C81.382 55.792 80.326 55.488 79.174 55.296C78.054 55.104 77.03 55.008 76.102 55.008C75.078 55.008 74.166 55.056 73.366 55.152C72.566 55.248 72.166 55.52 72.166 55.968C72.166 56.48 72.614 56.848 73.51 57.072C74.438 57.296 75.67 57.648 77.206 58.128C78.934 58.64 80.278 59.2 81.238 59.808C82.23 60.416 82.918 61.152 83.302 62.016C83.718 62.88 83.926 63.952 83.926 65.232C83.926 67.536 82.982 69.328 81.094 70.608C79.238 71.856 76.47 72.48 72.79 72.48ZM96.3415 72.48C93.3015 72.48 91.0935 71.712 89.7175 70.176C88.3415 68.64 87.6535 66.56 87.6535 63.936V55.92H84.6775V49.248H87.6535V44.592L96.6775 42.432V49.248H101.91L101.574 55.92H96.6775V63.264C96.6775 64.224 96.9175 64.912 97.3975 65.328C97.8775 65.712 98.6135 65.904 99.6055 65.904C100.534 65.904 101.478 65.744 102.438 65.424V71.424C100.742 72.128 98.7095 72.48 96.3415 72.48ZM114.676 72V41.088H123.7V52.608H134.356V41.088H143.38V72H134.356V60.48H123.7V72H114.676ZM155.979 72.48C153.323 72.48 151.243 71.728 149.739 70.224C148.235 68.72 147.483 66.512 147.483 63.6V49.248H156.507V62.88C156.507 64.864 157.515 65.856 159.531 65.856C160.267 65.856 160.987 65.696 161.691 65.376C162.395 65.056 162.955 64.656 163.371 64.176V49.248H172.395V72H163.947L163.707 70.272C162.811 70.912 161.707 71.44 160.395 71.856C159.115 72.272 157.643 72.48 155.979 72.48ZM191.859 72.48C190.387 72.48 189.091 72.288 187.971 71.904C186.883 71.488 185.875 70.928 184.947 70.224L184.515 72H176.691V39.648H185.715V50.064C186.483 49.648 187.379 49.328 188.403 49.104C189.459 48.88 190.515 48.768 191.571 48.768C194.963 48.768 197.619 49.68 199.539 51.504C201.491 53.296 202.467 56.272 202.467 60.432C202.467 64.496 201.507 67.52 199.587 69.504C197.667 71.488 195.091 72.48 191.859 72.48ZM189.267 65.952C190.675 65.952 191.683 65.536 192.291 64.704C192.931 63.84 193.251 62.448 193.251 60.528C193.251 58.576 192.915 57.216 192.243 56.448C191.603 55.68 190.611 55.296 189.267 55.296C187.795 55.296 186.611 55.696 185.715 56.496V64.56C186.707 65.488 187.891 65.952 189.267 65.952Z"
            fill="#CE422B" />
    </g>
    <g filter="url(#filter1_dd_1_7)">
        <path
            d="M198.043 41V10.088H213.979C216.507 10.088 218.587 10.6 220.219 11.624C221.883 12.616 223.115 13.976 223.915 15.704C224.715 17.432 225.115 19.352 225.115 21.464C225.115 23.64 224.651 25.576 223.723 27.272C222.795 28.968 221.483 30.296 219.787 31.256C218.091 32.216 216.091 32.696 213.787 32.696H207.067V41H198.043ZM207.067 25.784H211.723C213.131 25.784 214.171 25.384 214.843 24.584C215.547 23.784 215.899 22.744 215.899 21.464C215.899 20.088 215.579 19 214.939 18.2C214.299 17.4 213.307 17 211.963 17H207.067V25.784ZM227.527 41V10.088H243.607C246.135 10.088 248.199 10.552 249.799 11.48C251.431 12.408 252.647 13.704 253.447 15.368C254.247 17 254.647 18.904 254.647 21.08C254.647 23.16 254.119 25 253.063 26.6C252.039 28.168 250.663 29.368 248.935 30.2C249.287 30.488 249.591 30.84 249.847 31.256C250.103 31.64 250.391 32.184 250.711 32.888L254.263 41H244.855L241.591 33.56C241.335 32.984 241.015 32.584 240.631 32.36C240.279 32.104 239.767 31.976 239.095 31.976H236.551V41H227.527ZM236.551 25.064H241.303C242.615 25.064 243.623 24.728 244.327 24.056C245.063 23.352 245.431 22.36 245.431 21.08C245.431 18.36 244.151 17 241.591 17H236.551V25.064ZM272.125 41.48C267.005 41.48 263.085 40.232 260.365 37.736C257.677 35.24 256.333 31.208 256.333 25.64C256.333 21.8 256.941 18.712 258.157 16.376C259.373 14.008 261.149 12.296 263.485 11.24C265.853 10.152 268.733 9.608 272.125 9.608C275.517 9.608 278.381 10.152 280.717 11.24C283.085 12.296 284.877 14.008 286.093 16.376C287.309 18.712 287.917 21.8 287.917 25.64C287.917 31.208 286.557 35.24 283.837 37.736C281.117 40.232 277.213 41.48 272.125 41.48ZM272.125 33.8C274.429 33.8 276.093 33.16 277.117 31.88C278.173 30.568 278.701 28.488 278.701 25.64C278.701 22.6 278.173 20.456 277.117 19.208C276.093 17.928 274.429 17.288 272.125 17.288C269.821 17.288 268.141 17.928 267.085 19.208C266.061 20.456 265.549 22.6 265.549 25.64C265.549 28.488 266.061 30.568 267.085 31.88C268.141 33.16 269.821 33.8 272.125 33.8Z"
            fill="#FDDA0D" />
    </g>
    <defs>
        <filter color-interpolation-filters="sRGB" filterUnits="userSpaceOnUse" height="40.832" id="filter0_dd_1_7" width="205.995"
            x="0.472504" y="39.648">
            <feFlood flood-opacity="0" result="BackgroundImageFix" />
            <feColorMatrix in="SourceAlpha" result="hardAlpha"
                type="matrix" values="0 0 0 0 0 0 0 0 0 0 0 0 0 0 0 0 0 0 127 0" />
            <feOffset dy="4" />
            <feGaussianBlur stdDeviation="2" />
            <feComposite in2="hardAlpha" operator="out" />
            <feColorMatrix type="matrix" values="0 0 0 0 0 0 0 0 0 0 0 0 0 0 0 0 0 0 0.25 0" />
            <feBlend in2="BackgroundImageFix" mode="normal" result="effect1_dropShadow_1_7" />
            <feColorMatrix in="SourceAlpha" result="hardAlpha"
                type="matrix" values="0 0 0 0 0 0 0 0 0 0 0 0 0 0 0 0 0 0 127 0" />
            <feOffset dy="4" />
            <feGaussianBlur stdDeviation="2" />
            <feComposite in2="hardAlpha" operator="out" />
            <feColorMatrix type="matrix" values="0 0 0 0 0 0 0 0 0 0 0 0 0 0 0 0 0 0 0.25 0" />
            <feBlend in2="effect1_dropShadow_1_7" mode="normal" result="effect2_dropShadow_1_7" />
            <feBlend in="SourceGraphic" in2="effect2_dropShadow_1_7" mode="normal" result="shape" />
        </filter>
        <filter color-interpolation-filters="sRGB" filterUnits="userSpaceOnUse" height="39.872" id="filter1_dd_1_7" width="97.874"
            x="194.043" y="9.608">
            <feFlood flood-opacity="0" result="BackgroundImageFix" />
            <feColorMatrix in="SourceAlpha" result="hardAlpha"
                type="matrix" values="0 0 0 0 0 0 0 0 0 0 0 0 0 0 0 0 0 0 127 0" />
            <feOffset dy="4" />
            <feGaussianBlur stdDeviation="2" />
            <feComposite in2="hardAlpha" operator="out" />
            <feColorMatrix type="matrix" values="0 0 0 0 0 0 0 0 0 0 0 0 0 0 0 0 0 0 0.25 0" />
            <feBlend in2="BackgroundImageFix" mode="normal" result="effect1_dropShadow_1_7" />
            <feColorMatrix in="SourceAlpha" result="hardAlpha"
                type="matrix" values="0 0 0 0 0 0 0 0 0 0 0 0 0 0 0 0 0 0 127 0" />
            <feOffset dy="4" />
            <feGaussianBlur stdDeviation="2" />
            <feComposite in2="hardAlpha" operator="out" />
            <feColorMatrix type="matrix" values="0 0 0 0 0 0 0 0 0 0 0 0 0 0 0 0 0 0 0.25 0" />
            <feBlend in2="effect1_dropShadow_1_7" mode="normal" result="effect2_dropShadow_1_7" />
            <feBlend in="SourceGraphic" in2="effect2_dropShadow_1_7" mode="normal" result="shape" />
        </filter>
    </defs>
</svg>
