<svg width="292" height="91" viewBox="0 0 292 91" fill="none" xmlns="http://www.w3.org/2000/svg">
<g filter="url(#filter0_dd_1_7)">
<path d="M4.39438 72V41.088H20.4744C23.0024 41.088 25.0664 41.552 26.6664 42.48C28.2984 43.408 29.5144 44.704 30.3144 46.368C31.1144 48 31.5144 49.904 31.5144 52.08C31.5144 54.16 30.9864 56 29.9304 57.6C28.9064 59.168 27.5304 60.368 25.8024 61.2C26.1544 61.488 26.4584 61.84 26.7144 62.256C26.9704 62.64 27.2584 63.184 27.5784 63.888L31.1304 72H21.7224L18.4584 64.56C18.2024 63.984 17.8824 63.584 17.4984 63.36C17.1464 63.104 16.6344 62.976 15.9624 62.976H13.4184V72H4.39438ZM13.4184 56.064H18.1704C19.4824 56.064 20.4904 55.728 21.1944 55.056C21.9304 54.352 22.2984 53.36 22.2984 52.08C22.2984 49.36 21.0184 48 18.4584 48H13.4184V56.064ZM43.1191 72.48C40.4631 72.48 38.3831 71.728 36.8791 70.224C35.3751 68.72 34.6231 66.512 34.6231 63.6V49.248H43.6471V62.88C43.6471 64.864 44.6551 65.856 46.6711 65.856C47.4071 65.856 48.1271 65.696 48.8311 65.376C49.5351 65.056 50.0951 64.656 50.5111 64.176V49.248H59.5351V72H51.0871L50.8471 70.272C49.9511 70.912 48.8471 71.44 47.5351 71.856C46.2551 72.272 44.7831 72.48 43.1191 72.48ZM72.7119 72.48C70.7599 72.48 68.9199 72.336 67.1919 72.048C65.4959 71.792 64.1519 71.456 63.1599 71.04V64.56C64.2799 65.072 65.6079 65.472 67.1439 65.76C68.7119 66.048 70.0399 66.192 71.1279 66.192C72.2799 66.192 73.1439 66.16 73.7199 66.096C74.3279 66.032 74.6319 65.76 74.6319 65.28C74.6319 64.736 74.1039 64.32 73.0479 64.032C71.9919 63.744 70.6639 63.328 69.0639 62.784C66.9839 62.048 65.4319 61.184 64.4079 60.192C63.3839 59.2 62.8719 57.76 62.8719 55.872C62.8719 53.6 63.7679 51.856 65.5599 50.64C67.3519 49.392 70.1679 48.768 74.0079 48.768C75.4799 48.768 76.9999 48.88 78.5679 49.104C80.1359 49.328 81.3679 49.584 82.2639 49.872V56.208C81.3039 55.792 80.2479 55.488 79.0959 55.296C77.9759 55.104 76.9519 55.008 76.0239 55.008C74.9999 55.008 74.0879 55.056 73.2879 55.152C72.4879 55.248 72.0879 55.52 72.0879 55.968C72.0879 56.48 72.5359 56.848 73.4319 57.072C74.3599 57.296 75.5919 57.648 77.1279 58.128C78.8559 58.64 80.1999 59.2 81.1599 59.808C82.1519 60.416 82.8399 61.152 83.2239 62.016C83.6399 62.88 83.8479 63.952 83.8479 65.232C83.8479 67.536 82.9039 69.328 81.0159 70.608C79.1599 71.856 76.3919 72.48 72.7119 72.48ZM96.2634 72.48C93.2234 72.48 91.0154 71.712 89.6394 70.176C88.2634 68.64 87.5754 66.56 87.5754 63.936V55.92H84.5994V49.248H87.5754V44.592L96.5994 42.432V49.248H101.831L101.495 55.92H96.5994V63.264C96.5994 64.224 96.8394 64.912 97.3194 65.328C97.7994 65.712 98.5354 65.904 99.5274 65.904C100.455 65.904 101.399 65.744 102.359 65.424V71.424C100.663 72.128 98.6314 72.48 96.2634 72.48ZM104.754 72V41.088H113.778V52.608H124.434V41.088H133.458V72H124.434V60.48H113.778V72H104.754ZM146.057 72.48C143.401 72.48 141.321 71.728 139.817 70.224C138.313 68.72 137.561 66.512 137.561 63.6V49.248H146.585V62.88C146.585 64.864 147.593 65.856 149.609 65.856C150.345 65.856 151.065 65.696 151.769 65.376C152.473 65.056 153.033 64.656 153.449 64.176V49.248H162.473V72H154.025L153.785 70.272C152.889 70.912 151.785 71.44 150.473 71.856C149.193 72.272 147.721 72.48 146.057 72.48ZM181.937 72.48C180.465 72.48 179.169 72.288 178.049 71.904C176.961 71.488 175.953 70.928 175.025 70.224L174.593 72H166.769V39.648H175.793V50.064C176.561 49.648 177.457 49.328 178.481 49.104C179.537 48.88 180.593 48.768 181.649 48.768C185.041 48.768 187.697 49.68 189.617 51.504C191.569 53.296 192.545 56.272 192.545 60.432C192.545 64.496 191.585 67.52 189.665 69.504C187.745 71.488 185.169 72.48 181.937 72.48ZM179.345 65.952C180.753 65.952 181.761 65.536 182.369 64.704C183.009 63.84 183.329 62.448 183.329 60.528C183.329 58.576 182.993 57.216 182.321 56.448C181.681 55.68 180.689 55.296 179.345 55.296C177.873 55.296 176.689 55.696 175.793 56.496V64.56C176.785 65.488 177.969 65.952 179.345 65.952Z" fill="#CE422B"/>
</g>
<g filter="url(#filter1_dd_1_7)">
<path d="M193.043 41V10.088H208.979C211.507 10.088 213.587 10.6 215.219 11.624C216.883 12.616 218.115 13.976 218.915 15.704C219.715 17.432 220.115 19.352 220.115 21.464C220.115 23.64 219.651 25.576 218.723 27.272C217.795 28.968 216.483 30.296 214.787 31.256C213.091 32.216 211.091 32.696 208.787 32.696H202.067V41H193.043ZM202.067 25.784H206.723C208.131 25.784 209.171 25.384 209.843 24.584C210.547 23.784 210.899 22.744 210.899 21.464C210.899 20.088 210.579 19 209.939 18.2C209.299 17.4 208.307 17 206.963 17H202.067V25.784ZM222.527 41V10.088H238.607C241.135 10.088 243.199 10.552 244.799 11.48C246.431 12.408 247.647 13.704 248.447 15.368C249.247 17 249.647 18.904 249.647 21.08C249.647 23.16 249.119 25 248.063 26.6C247.039 28.168 245.663 29.368 243.935 30.2C244.287 30.488 244.591 30.84 244.847 31.256C245.103 31.64 245.391 32.184 245.711 32.888L249.263 41H239.855L236.591 33.56C236.335 32.984 236.015 32.584 235.631 32.36C235.279 32.104 234.767 31.976 234.095 31.976H231.551V41H222.527ZM231.551 25.064H236.303C237.615 25.064 238.623 24.728 239.327 24.056C240.063 23.352 240.431 22.36 240.431 21.08C240.431 18.36 239.151 17 236.591 17H231.551V25.064ZM267.125 41.48C262.005 41.48 258.085 40.232 255.365 37.736C252.677 35.24 251.333 31.208 251.333 25.64C251.333 21.8 251.941 18.712 253.157 16.376C254.373 14.008 256.149 12.296 258.485 11.24C260.853 10.152 263.733 9.608 267.125 9.608C270.517 9.608 273.381 10.152 275.717 11.24C278.085 12.296 279.877 14.008 281.093 16.376C282.309 18.712 282.917 21.8 282.917 25.64C282.917 31.208 281.557 35.24 278.837 37.736C276.117 40.232 272.213 41.48 267.125 41.48ZM267.125 33.8C269.429 33.8 271.093 33.16 272.117 31.88C273.173 30.568 273.701 28.488 273.701 25.64C273.701 22.6 273.173 20.456 272.117 19.208C271.093 17.928 269.429 17.288 267.125 17.288C264.821 17.288 263.141 17.928 262.085 19.208C261.061 20.456 260.549 22.6 260.549 25.64C260.549 28.488 261.061 30.568 262.085 31.88C263.141 33.16 264.821 33.8 267.125 33.8Z" fill="#FDDA0D"/>
</g>
<defs>
<filter id="filter0_dd_1_7" x="0.394379" y="39.648" width="196.151" height="40.832" filterUnits="userSpaceOnUse" color-interpolation-filters="sRGB">
<feFlood flood-opacity="0" result="BackgroundImageFix"/>
<feColorMatrix in="SourceAlpha" type="matrix" values="0 0 0 0 0 0 0 0 0 0 0 0 0 0 0 0 0 0 127 0" result="hardAlpha"/>
<feOffset dy="4"/>
<feGaussianBlur stdDeviation="2"/>
<feComposite in2="hardAlpha" operator="out"/>
<feColorMatrix type="matrix" values="0 0 0 0 0 0 0 0 0 0 0 0 0 0 0 0 0 0 0.25 0"/>
<feBlend mode="normal" in2="BackgroundImageFix" result="effect1_dropShadow_1_7"/>
<feColorMatrix in="SourceAlpha" type="matrix" values="0 0 0 0 0 0 0 0 0 0 0 0 0 0 0 0 0 0 127 0" result="hardAlpha"/>
<feOffset dy="4"/>
<feGaussianBlur stdDeviation="2"/>
<feComposite in2="hardAlpha" operator="out"/>
<feColorMatrix type="matrix" values="0 0 0 0 0 0 0 0 0 0 0 0 0 0 0 0 0 0 0.25 0"/>
<feBlend mode="normal" in2="effect1_dropShadow_1_7" result="effect2_dropShadow_1_7"/>
<feBlend mode="normal" in="SourceGraphic" in2="effect2_dropShadow_1_7" result="shape"/>
</filter>
<filter id="filter1_dd_1_7" x="189.043" y="9.608" width="97.874" height="39.872" filterUnits="userSpaceOnUse" color-interpolation-filters="sRGB">
<feFlood flood-opacity="0" result="BackgroundImageFix"/>
<feColorMatrix in="SourceAlpha" type="matrix" values="0 0 0 0 0 0 0 0 0 0 0 0 0 0 0 0 0 0 127 0" result="hardAlpha"/>
<feOffset dy="4"/>
<feGaussianBlur stdDeviation="2"/>
<feComposite in2="hardAlpha" operator="out"/>
<feColorMatrix type="matrix" values="0 0 0 0 0 0 0 0 0 0 0 0 0 0 0 0 0 0 0.25 0"/>
<feBlend mode="normal" in2="BackgroundImageFix" result="effect1_dropShadow_1_7"/>
<feColorMatrix in="SourceAlpha" type="matrix" values="0 0 0 0 0 0 0 0 0 0 0 0 0 0 0 0 0 0 127 0" result="hardAlpha"/>
<feOffset dy="4"/>
<feGaussianBlur stdDeviation="2"/>
<feComposite in2="hardAlpha" operator="out"/>
<feColorMatrix type="matrix" values="0 0 0 0 0 0 0 0 0 0 0 0 0 0 0 0 0 0 0.25 0"/>
<feBlend mode="normal" in2="effect1_dropShadow_1_7" result="effect2_dropShadow_1_7"/>
<feBlend mode="normal" in="SourceGraphic" in2="effect2_dropShadow_1_7" result="shape"/>
</filter>
</defs>
</svg>
