<svg height="50px" viewBox="0 0 50 50" width="50px" xmlns="http://www.w3.org/2000/svg">
    <path d="M46.768,16.279c-0.267-1.416-0.789-2.772-1.411-4.068C44.773,11,44.13,9.695,43.114,8.783 c-0.979-0.88-2.225-1.236-3.502-1.414c-1.543-0.215-3.106-0.323-4.661-0.413C28.36,6.58,21.758,6.972,15.184,7.461 c-2.796,0.208-5.889,0.092-8.3,1.736c-1.976,1.347-3.326,3.442-4.097,5.677c-1.118,3.24-0.899,6.763-0.617,10.121 c0.304,3.63,0.501,7.242,0.376,10.886c-0.003,0.089,0.016,0.163,0.047,0.227c-0.001,0.251,0.159,0.497,0.482,0.487 c6.332-0.194,12.667-0.285,19.002-0.295c0.083,3.794,0.167,7.589,0.25,11.383c0.005,0.251,0.225,0.526,0.5,0.5 c1.778-0.165,3.556-0.33,5.333-0.495c0.533-0.05,1.334,0.02,1.531-0.616c0.105-0.339,0.005-0.742-0.024-1.09 c-0.038-0.455-0.077-0.91-0.115-1.365c-0.233-2.766-0.466-5.531-0.699-8.297c2.308,0.02,4.615,0.046,6.923,0.092 c3.079,0.06,6.157,0.143,9.234,0.246c0.201,0.007,0.331-0.09,0.407-0.221c0.23-0.024,0.453-0.177,0.473-0.471 c0.224-3.314,0.448-6.629,0.673-9.943c0.112-1.655,0.226-3.31,0.336-4.966C47.004,19.458,47.066,17.861,46.768,16.279z"
        fill="#99c93c" />
    <path d="M38.819,43.436c0.95-0.785,1.26-2.016,1.989-2.964c-0.052,0.067-0.104,0.135-0.156,0.202 c0.045-0.057,0.09-0.112,0.138-0.166c0.176-0.202,0.293-0.433,0.293-0.707c0-0.245-0.109-0.538-0.293-0.707 c-0.377-0.346-1.047-0.421-1.414,0c-0.37,0.424-0.657,0.894-0.918,1.39c-0.225,0.428-0.443,0.862-0.737,1.249 c0.052-0.067,0.104-0.135,0.156-0.202c-0.14,0.181-0.295,0.346-0.472,0.492c-0.186,0.154-0.293,0.475-0.293,0.707 c0,0.245,0.109,0.538,0.293,0.707c0.191,0.175,0.441,0.305,0.707,0.293C38.391,43.717,38.605,43.614,38.819,43.436L38.819,43.436z"
        fill="#ff9600" />
    <path d="M44.873,43.59c-0.127-0.334-0.237-0.674-0.324-1.02c-0.044-0.173-0.083-0.347-0.116-0.523 c-0.014-0.075-0.028-0.15-0.04-0.226c-0.005-0.028-0.043-0.328-0.027-0.17c0.017,0.159-0.014-0.143-0.017-0.171 c-0.007-0.076-0.014-0.152-0.019-0.229c-0.013-0.178-0.02-0.356-0.022-0.535c-0.004-0.357,0.014-0.714,0.051-1.069 c0.054-0.522-0.499-1.022-1-1c-0.588,0.026-0.942,0.441-1,1c-0.157,1.502,0.048,3.061,0.585,4.473 c0.186,0.487,0.682,0.876,1.23,0.698C44.65,44.666,45.072,44.113,44.873,43.59L44.873,43.59z"
        fill="#ff9600" />
    <path d="M45.574,39.147c0.383,0.322,0.786,0.623,1.217,0.878c0.432,0.256,0.891,0.462,1.359,0.644 c0.228,0.088,0.568,0.018,0.771-0.101c0.207-0.121,0.405-0.359,0.46-0.598c0.058-0.256,0.046-0.543-0.101-0.771 c-0.052-0.067-0.104-0.135-0.156-0.202c-0.125-0.124-0.272-0.21-0.441-0.257c-0.069-0.027-0.138-0.055-0.207-0.083 c0.08,0.034,0.159,0.067,0.239,0.101c-0.595-0.252-1.155-0.578-1.667-0.971c0.067,0.052,0.135,0.104,0.202,0.156 c-0.088-0.068-0.175-0.139-0.26-0.21c-0.207-0.174-0.428-0.293-0.707-0.293c-0.245,0-0.538,0.109-0.707,0.293 c-0.175,0.191-0.305,0.441-0.293,0.707C45.293,38.691,45.374,38.978,45.574,39.147L45.574,39.147z"
        fill="#ff9600" />
    <path d="M16.765,37.961c-0.421-0.246-1.154-0.14-1.368,0.359c-0.232,0.541-0.697,1.276-1.34,1.396 c-0.571,0.107-0.979-0.795-1.199-1.193c-0.449-0.815-1.539-0.519-1.828,0.239c-0.134,0.351-0.407,1.252-0.914,1.219 c-0.067-0.004-0.149-0.121-0.253-0.262c-0.205-0.28-0.389-0.568-0.628-0.823c-0.365-0.391-1.047-0.378-1.414,0 c-0.338,0.348-0.601,0.746-0.882,1.138c-0.144,0.201-0.403,0.62-0.686,0.62c-0.078,0-0.194-0.188-0.29-0.362 c-0.171-0.311-0.313-0.631-0.518-0.924c-0.732-1.048-2.466-0.049-1.727,1.009c0.67,0.96,1.004,2.223,2.412,2.277 c0.69,0.026,1.326-0.288,1.827-0.744c0.221-0.201,0.398-0.437,0.569-0.679c0.066,0.077,0.133,0.153,0.21,0.221 c0.501,0.441,1.156,0.606,1.81,0.482c0.698-0.133,1.198-0.525,1.581-1.031c0.526,0.523,1.172,0.885,1.973,0.819 c1.328-0.109,2.513-1.206,3.021-2.391C17.337,38.834,17.272,38.258,16.765,37.961z"
        fill="#399bdf" />
    <path d="M20.568,39.315c0.005-0.138-0.024-0.266-0.086-0.385c-0.04-0.124-0.109-0.231-0.207-0.322 c-0.091-0.097-0.198-0.166-0.322-0.207c-0.119-0.062-0.248-0.091-0.385-0.086c-0.089,0.012-0.177,0.024-0.266,0.036 c-0.169,0.047-0.317,0.133-0.441,0.257c-0.052,0.068-0.104,0.135-0.156,0.202c-0.091,0.156-0.136,0.324-0.137,0.505 c0.001,0.021,0.002,0.042,0.003,0.064c-0.005,0.137,0.024,0.266,0.086,0.385c0.04,0.124,0.109,0.231,0.207,0.322 c0.091,0.097,0.198,0.167,0.322,0.207c0.119,0.062,0.248,0.091,0.385,0.086c0.089-0.012,0.177-0.024,0.266-0.036 c0.169-0.047,0.317-0.133,0.441-0.257c0.052-0.068,0.104-0.135,0.156-0.202c0.091-0.156,0.136-0.324,0.137-0.505 C20.57,39.358,20.569,39.336,20.568,39.315z"
        fill="#399bdf" />
    <path d="M10.674,9.456c1.982-0.329,4.115-0.465,5.88,0.667c1.588,1.019,2.576,2.742,3.139,4.5 c0.634,1.979,0.888,4.088,1.062,6.151c0.183,2.173,0.218,4.356,0.177,6.536c-0.047,2.469-0.192,4.935-0.338,7.4 c-0.038,0.643,0.962,0.641,1,0c0.282-4.757,0.566-9.54,0.13-14.297c-0.361-3.939-0.999-8.722-4.586-11.101 c-2.011-1.334-4.451-1.198-6.729-0.82C9.775,8.597,10.043,9.561,10.674,9.456L10.674,9.456z"
        fill="#231f20" />
    <path d="M6.715,18.405c3.152-0.262,6.318-0.287,9.474-0.073c0.642,0.043,0.64-0.957,0-1 c-3.156-0.213-6.322-0.189-9.474,0.073C6.078,17.458,6.072,18.458,6.715,18.405L6.715,18.405z"
        fill="#231f20" />
    <path d="M42.166,16.73c-0.888-0.926-2.254-0.623-3.395-0.543c-1.191,0.083-2.382,0.166-3.573,0.249 c-2.763,0.192-5.526,0.385-8.29,0.577c-0.808,0.056-1.5,0.649-1.5,1.5c0,0.768,0.688,1.557,1.5,1.5 c2.334-0.162,4.669-0.325,7.003-0.488c0.532-0.037,1.064-0.074,1.596-0.111c0.004,1.037,0.036,2.073,0.114,3.106 c0.089,1.192,0.128,2.44,1.4,2.966c1.006,0.416,2.218,0.487,3.29,0.362c1.412-0.165,2.275-0.927,2.443-2.361 c0.132-1.124,0.158-2.267,0.131-3.397C42.859,19.025,42.963,17.562,42.166,16.73z"
        fill="#fff" />
    <g>
        <path d="M22.318,37.101c2.044-0.098,4.088-0.196,6.132-0.294c0.641-0.031,0.644-1.031,0-1 c-2.044,0.098-4.088,0.196-6.132,0.294C21.678,36.132,21.674,37.132,22.318,37.101L22.318,37.101z"
            fill="#231f20" />
    </g>
</svg>